<svg width="133" height="27" viewBox="0 0 133 27" fill="none" xmlns="http://www.w3.org/2000/svg">
<path d="M48.96 15.352C48.96 15.896 48.9013 16.4027 48.784 16.872C48.6667 17.3413 48.4587 17.752 48.16 18.104C47.872 18.456 47.4773 18.7333 46.976 18.936C46.4853 19.1387 45.8613 19.24 45.104 19.24C44.4 19.24 43.7867 19.144 43.264 18.952C42.752 18.7493 42.3573 18.536 42.08 18.312L42.8 16.728C43.0667 16.9093 43.392 17.0853 43.776 17.256C44.1707 17.416 44.5707 17.496 44.976 17.496C45.6587 17.496 46.1547 17.3253 46.464 16.984C46.7733 16.6427 46.928 16.056 46.928 15.224V7.912H48.96V15.352ZM59.0031 14.808C59.0031 15.4693 58.9071 16.072 58.7151 16.616C58.5231 17.16 58.2511 17.624 57.8991 18.008C57.5471 18.392 57.1205 18.6907 56.6191 18.904C56.1285 19.1173 55.5845 19.224 54.9871 19.224C54.3898 19.224 53.8458 19.1173 53.3551 18.904C52.8645 18.6907 52.4431 18.392 52.0911 18.008C51.7391 17.624 51.4618 17.16 51.2591 16.616C51.0671 16.072 50.9711 15.4693 50.9711 14.808C50.9711 14.1467 51.0671 13.5493 51.2591 13.016C51.4618 12.472 51.7391 12.008 52.0911 11.624C52.4538 11.24 52.8805 10.9467 53.3711 10.744C53.8618 10.5307 54.4005 10.424 54.9871 10.424C55.5738 10.424 56.1125 10.5307 56.6031 10.744C57.1045 10.9467 57.5311 11.24 57.8831 11.624C58.2351 12.008 58.5071 12.472 58.6991 13.016C58.9018 13.5493 59.0031 14.1467 59.0031 14.808ZM57.0191 14.808C57.0191 13.976 56.8378 13.32 56.4751 12.84C56.1231 12.3493 55.6271 12.104 54.9871 12.104C54.3471 12.104 53.8458 12.3493 53.4831 12.84C53.1311 13.32 52.9551 13.976 52.9551 14.808C52.9551 15.6507 53.1311 16.3173 53.4831 16.808C53.8458 17.2987 54.3471 17.544 54.9871 17.544C55.6271 17.544 56.1231 17.2987 56.4751 16.808C56.8378 16.3173 57.0191 15.6507 57.0191 14.808ZM67.8616 18.744C67.4883 18.84 67.003 18.936 66.4056 19.032C65.8083 19.1387 65.1523 19.192 64.4376 19.192C63.7656 19.192 63.2003 19.096 62.7416 18.904C62.2936 18.712 61.931 18.4453 61.6536 18.104C61.387 17.7627 61.195 17.3573 61.0776 16.888C60.9603 16.408 60.9016 15.8853 60.9016 15.32V10.632H62.8376V15.016C62.8376 15.912 62.9656 16.552 63.2216 16.936C63.4883 17.32 63.947 17.512 64.5976 17.512C64.8323 17.512 65.0776 17.5013 65.3336 17.48C65.6003 17.4587 65.7976 17.432 65.9256 17.4V10.632H67.8616V18.744ZM75.0938 12.376C74.9338 12.3227 74.7098 12.2693 74.4218 12.216C74.1444 12.152 73.8191 12.12 73.4458 12.12C73.2324 12.12 73.0031 12.1413 72.7578 12.184C72.5231 12.2267 72.3578 12.264 72.2618 12.296V19H70.3258V11.032C70.6991 10.8933 71.1631 10.7653 71.7178 10.648C72.2831 10.52 72.9071 10.456 73.5898 10.456C73.7178 10.456 73.8671 10.4667 74.0378 10.488C74.2084 10.4987 74.3791 10.52 74.5498 10.552C74.7204 10.5733 74.8858 10.6053 75.0458 10.648C75.2058 10.68 75.3338 10.712 75.4298 10.744L75.0938 12.376ZM76.7789 10.904C77.1522 10.7973 77.6375 10.696 78.2349 10.6C78.8322 10.504 79.4935 10.456 80.2189 10.456C80.9015 10.456 81.4722 10.552 81.9309 10.744C82.3895 10.9253 82.7522 11.1867 83.0189 11.528C83.2962 11.8587 83.4882 12.264 83.5949 12.744C83.7122 13.2133 83.7709 13.7307 83.7709 14.296V19H81.8349V14.6C81.8349 14.152 81.8029 13.7733 81.7389 13.464C81.6855 13.144 81.5895 12.888 81.4509 12.696C81.3229 12.4933 81.1415 12.3493 80.9069 12.264C80.6829 12.168 80.4055 12.12 80.0749 12.12C79.8295 12.12 79.5735 12.136 79.3069 12.168C79.0402 12.2 78.8429 12.2267 78.7149 12.248V19H76.7789V10.904ZM85.6743 14.856C85.6743 14.12 85.7809 13.4747 85.9943 12.92C86.2183 12.3653 86.5116 11.9067 86.8743 11.544C87.2369 11.1707 87.6529 10.8933 88.1223 10.712C88.5916 10.52 89.0716 10.424 89.5623 10.424C90.7143 10.424 91.6103 10.7813 92.2503 11.496C92.9009 12.2107 93.2263 13.2773 93.2263 14.696C93.2263 14.8027 93.2209 14.9253 93.2103 15.064C93.2103 15.192 93.2049 15.3093 93.1943 15.416H87.6743C87.7276 16.088 87.9623 16.6107 88.3783 16.984C88.8049 17.3467 89.4183 17.528 90.2183 17.528C90.6876 17.528 91.1143 17.4853 91.4983 17.4C91.8929 17.3147 92.2023 17.224 92.4263 17.128L92.6823 18.712C92.5756 18.7653 92.4263 18.824 92.2343 18.888C92.0529 18.9413 91.8396 18.9893 91.5943 19.032C91.3596 19.0853 91.1036 19.128 90.8263 19.16C90.5489 19.192 90.2663 19.208 89.9783 19.208C89.2423 19.208 88.6023 19.1013 88.0583 18.888C87.5143 18.664 87.0663 18.36 86.7143 17.976C86.3623 17.5813 86.1009 17.1227 85.9303 16.6C85.7596 16.0667 85.6743 15.4853 85.6743 14.856ZM91.2903 13.992C91.2903 13.7253 91.2529 13.4747 91.1783 13.24C91.1036 12.9947 90.9916 12.7867 90.8423 12.616C90.7036 12.4347 90.5276 12.296 90.3143 12.2C90.1116 12.0933 89.8663 12.04 89.5783 12.04C89.2796 12.04 89.0183 12.0987 88.7943 12.216C88.5703 12.3227 88.3783 12.4667 88.2183 12.648C88.0689 12.8293 87.9516 13.0373 87.8663 13.272C87.7809 13.5067 87.7223 13.7467 87.6903 13.992H91.2903ZM102.111 10.632C101.247 13.8107 100.244 16.6907 99.1029 19.272C98.8895 19.752 98.6709 20.1627 98.4469 20.504C98.2229 20.8453 97.9722 21.128 97.6949 21.352C97.4175 21.576 97.1082 21.736 96.7669 21.832C96.4255 21.9387 96.0309 21.992 95.5829 21.992C95.2842 21.992 94.9855 21.96 94.6869 21.896C94.3989 21.832 94.1802 21.7627 94.0309 21.688L94.3829 20.136C94.7669 20.2853 95.1455 20.36 95.5189 20.36C96.0202 20.36 96.4095 20.2373 96.6869 19.992C96.9749 19.7573 97.2255 19.3893 97.4389 18.888C96.8309 17.7147 96.2442 16.4347 95.6789 15.048C95.1242 13.6613 94.6282 12.1893 94.1909 10.632H96.2549C96.3615 11.08 96.4895 11.5653 96.6389 12.088C96.7989 12.6107 96.9695 13.144 97.1509 13.688C97.3322 14.2213 97.5242 14.7547 97.7269 15.288C97.9295 15.8213 98.1322 16.3173 98.3349 16.776C98.6762 15.8267 98.9962 14.8187 99.2949 13.752C99.5935 12.6747 99.8655 11.6347 100.111 10.632H102.111ZM110.504 7.912H112.52V19H110.504V14.088H105.688V19H103.672V7.912H105.688V12.344H110.504V7.912ZM121.94 18.744C121.566 18.84 121.081 18.936 120.484 19.032C119.886 19.1387 119.23 19.192 118.516 19.192C117.844 19.192 117.278 19.096 116.82 18.904C116.372 18.712 116.009 18.4453 115.732 18.104C115.465 17.7627 115.273 17.3573 115.156 16.888C115.038 16.408 114.98 15.8853 114.98 15.32V10.632H116.916V15.016C116.916 15.912 117.044 16.552 117.3 16.936C117.566 17.32 118.025 17.512 118.676 17.512C118.91 17.512 119.156 17.5013 119.412 17.48C119.678 17.4587 119.876 17.432 120.004 17.4V10.632H121.94V18.744ZM129.956 14.792C129.956 13.9707 129.791 13.32 129.46 12.84C129.14 12.36 128.628 12.12 127.924 12.12C127.604 12.12 127.3 12.168 127.012 12.264C126.735 12.36 126.511 12.4667 126.34 12.584V17.4C126.479 17.432 126.655 17.464 126.868 17.496C127.092 17.5173 127.359 17.528 127.668 17.528C128.383 17.528 128.943 17.288 129.348 16.808C129.753 16.3173 129.956 15.6453 129.956 14.792ZM131.94 14.824C131.94 15.496 131.839 16.104 131.636 16.648C131.444 17.1813 131.161 17.64 130.788 18.024C130.425 18.408 129.983 18.7013 129.46 18.904C128.937 19.1067 128.345 19.208 127.684 19.208C127.044 19.208 126.431 19.16 125.844 19.064C125.268 18.968 124.788 18.8613 124.404 18.744V6.904L126.34 6.584V10.92C126.564 10.8027 126.836 10.696 127.156 10.6C127.487 10.504 127.849 10.456 128.244 10.456C128.831 10.456 129.353 10.5627 129.812 10.776C130.281 10.9787 130.671 11.272 130.98 11.656C131.289 12.04 131.524 12.504 131.684 13.048C131.855 13.5813 131.94 14.1733 131.94 14.824Z" fill="#081225"/>
<path d="M14.3433 1.54606C14.7258 0.867287 15.7032 0.867288 16.0857 1.54606L28.3413 23.295C28.8598 24.2151 27.7832 25.2063 26.9089 24.6136L16.9805 17.8829C16.2789 17.4073 15.3409 17.9655 15.4242 18.8089L15.6636 21.2336C15.7394 22.0014 14.9542 22.5622 14.2526 22.2413L9.96341 20.2797C9.63263 20.1285 9.2458 20.1687 8.95326 20.3849L3.76128 24.221C2.89397 24.8618 1.76644 23.8652 2.29584 22.9258L14.3433 1.54606Z" fill="#081225"/>
</svg>
